<svg width="25" height="24" viewBox="0 0 25 24" fill="none" xmlns="http://www.w3.org/2000/svg">
<path d="M19 19C20.3807 19 21.5 17.8807 21.5 16.5C21.5 15.1193 20.3807 14 19 14C17.6193 14 16.5 15.1193 16.5 16.5C16.5 17.8807 17.6193 19 19 19ZM19 19C16.7909 19 15 20.7909 15 23H23C23 20.7909 21.2091 19 19 19ZM10 6.5C10 8.98528 7.98528 11 5.5 11C3.01472 11 1 8.98528 1 6.5C1 4.01472 3.01472 2 5.5 2C7.98528 2 10 4.01472 10 6.5ZM1 14H10V23H1V14ZM19 2L24 11H14L19 2Z" stroke="white" stroke-linecap="square"/>
</svg>
