<svg width="26" height="26" viewBox="0 0 26 26" fill="none" xmlns="http://www.w3.org/2000/svg">
<g clip-path="url(#clip0_120_8)">
<path d="M25.1 0.400012C24.5 -0.199988 23.6 -0.199988 23 0.400012L0.400012 23C-0.199988 23.6 -0.199988 24.5 0.400012 25.1C0.700012 25.4 1.10001 25.5 1.50001 25.5C1.90001 25.5 2.30001 25.4 2.60001 25.1L25.1 2.60001C25.7 2.00001 25.7 1.00001 25.1 0.400012Z" fill="white"/>
<path d="M4.59999 15.3C4.39999 14.5 4.19999 13.7 4.19999 12.8C4.19999 8.10002 7.99999 4.30002 12.7 4.30002C13.6 4.30002 14.4 4.40002 15.2 4.70002L17.5 2.40002C16 1.70002 14.4 1.30002 12.7 1.30002C6.39999 1.30002 1.29999 6.40002 1.29999 12.8C1.29999 14.5 1.69999 16.1 2.39999 17.6L4.59999 15.3Z" fill="white"/>
<path d="M20.9 10.3C21.2 11.4 21.4 12.5 21.2 13.7C20.8 17.6 17.6 20.7 13.7 21.2C12.5 21.3 11.3 21.2 10.3 20.9L8 23.2C10.1 24.2 12.5 24.5 15 24C19.6 23.1 23.2 19.5 24.1 14.9C24.6 12.4 24.2 10 23.3 7.90002L20.9 10.3Z" fill="white"/>
</g>
<defs>
<clipPath id="clip0_120_8">
<rect width="25.6" height="25.6" fill="white"/>
</clipPath>
</defs>
</svg>
