<svg width="26" height="28" viewBox="0 0 26 28" fill="none" xmlns="http://www.w3.org/2000/svg">
<path d="M25 8V3H19.5M25 8H19.5M25 8V12.5M1 8V3H7M1 8H7M1 8V12.5M13.5 8H19.5M13.5 8H7M13.5 8V12.5M13.5 27H19.5M13.5 27H7M13.5 27V22M19.5 8V12.5M19.5 27H23C24.1046 27 25 26.1046 25 25V22M19.5 27V22M7 8V12.5M7 27H3C1.89543 27 1 26.1046 1 25V22M7 27V22M25 17.5V12.5M25 17.5V22M25 17.5H19.5M1 17.5V12.5M1 17.5V22M1 17.5H7M1 12.5H7M25 12.5H19.5M25 22H19.5M1 22H7M19.5 5V3M19.5 3V1M19.5 3H7M7 3V1M7 3V5M19.5 12.5V17.5M19.5 12.5H13.5M19.5 17.5V22M19.5 17.5H13.5M19.5 22H13.5M13.5 22V17.5M13.5 22H7M13.5 17.5V12.5M13.5 17.5H7M13.5 12.5H7M7 12.5V17.5M7 17.5V22" stroke="white" stroke-linecap="square"/>
</svg>
